<?xml version="1.0" encoding="UTF-8" standalone="no"?>
<svg>
  <path
     id="path1004"
     d="M 49.138672 0.00390625 C 47.257266 0.0478125 45.333359 0.29421875 43.380859 0.69921875 C 42.869609 0.80546875 42.370715 0.92752441 41.886719 1.0644531 C 40.434729 1.4752026 39.105117 2.0228516 37.886719 2.6914062 C 37.480586 2.9144531 37.086555 3.1506104 36.705078 3.4003906 C 32.508831 6.1446167 29.783984 10.467344 28.099609 15.699219 A 7.32 7.32 0 0 0 27.792969 17.962891 A 7.32 7.32 0 0 0 29.539062 22.599609 A 1.56 1.56 0 0 0 32.210938 22.599609 A 3.88 3.88 0 0 0 32.710938 20.949219 C 32.800938 20.039219 32.709062 19.109219 32.789062 18.199219 C 33.229062 12.199219 36.070547 7.8608594 41.560547 5.3808594 A 18.93 18.93 0 0 1 50.089844 4.0898438 C 57.609844 4.3098437 63.730547 8.9298437 65.560547 16.089844 C 66.035547 17.947344 66.354844 19.792422 66.503906 21.619141 C 66.935544 27.081332 65.840313 32.385774 62.849609 37.410156 A 77.81 77.81 0 0 0 55.050781 53.650391 A 52.06 52.06 0 0 1 51.910156 61.259766 C 49.460156 66.109766 45.820937 67.820391 40.460938 66.900391 A 6.21 6.21 0 0 1 35.400391 62.669922 A 9.9 9.9 0 0 1 34.740234 59.115234 A 9.9 9.9 0 0 1 35.089844 56.560547 A 2.06 2.06 0 0 0 35.154297 56.033203 A 2.06 2.06 0 0 0 34.759766 54.789062 C 34.199766 54.289062 32.990313 54.890937 32.570312 55.710938 A 3.42 3.42 0 0 0 32.310547 56.429688 A 11.6 11.6 0 0 0 31.810547 59.820312 A 11.6 11.6 0 0 0 32.310547 63.210938 A 11.17 11.17 0 0 0 49.699219 69.279297 A 13.61 13.61 0 0 0 54.460938 63.339844 C 54.80007 62.570825 55.11631 61.790076 55.445312 61.015625 C 55.513472 60.85755 55.580883 60.699304 55.648438 60.541016 C 56.623647 58.228009 57.570528 55.901462 58.460938 53.550781 C 60.520938 47.990781 63.759375 43.089609 66.859375 38.099609 C 69.609375 33.669609 71.320469 28.940547 71.230469 24.310547 L 71.189453 24.310547 C 71.206353 20.19266 70.508222 16.53246 69.070312 13.248047 C 67.962583 10.701643 66.413906 8.385 64.410156 6.25 C 60.030156 1.5625 54.782891 -0.1278125 49.138672 0.00390625 z M 49.675781 12.017578 C 47.865323 12.089699 46.077847 12.620217 44.595703 13.587891 C 42.811299 14.74983 41.466929 16.543793 41.050781 18.939453 A 17 17 0 0 0 40.820312 23.210938 A 5.61 5.61 0 0 1 39.400391 27.699219 A 4.68 4.68 0 0 0 38.294922 31.652344 A 4.68 4.68 0 0 0 38.316406 31.763672 A 4.68 4.68 0 0 0 38.318359 31.773438 A 4.68 4.68 0 0 0 39.410156 33.970703 C 40.060156 34.760703 40.639531 35.609687 41.269531 36.429688 A 3.33 3.33 0 0 1 42.003906 37.927734 A 3.33 3.33 0 0 1 41.859375 39.689453 C 41.199375 41.519453 40.519766 43.340859 39.759766 45.130859 A 2.91 2.91 0 0 0 39.4375 47.208984 A 2.91 2.91 0 0 0 40.259766 48.720703 A 4.88 4.88 0 0 0 44.699219 50.410156 A 8.37 8.37 0 0 0 51.480469 43.410156 A 12 12 0 0 0 51.449219 39.300781 A 12 12 0 0 0 51.410156 39.09375 A 12 12 0 0 0 51.394531 39.015625 A 12 12 0 0 0 51.351562 38.808594 A 12 12 0 0 0 51.34375 38.775391 A 12 12 0 0 0 48.759766 33.599609 A 13.75 13.75 0 0 1 45.988281 28.058594 A 13.75 13.75 0 0 1 46.650391 19.650391 C 47.720391 16.830391 50.280313 15.710938 53.070312 15.710938 C 55.860312 15.710938 57.560547 17.260938 58.560547 19.710938 A 18.76 18.76 0 0 1 59.435547 22.640625 A 18.76 18.76 0 0 1 59.449219 22.710938 C 59.729219 23.990938 59.889609 25.299844 60.099609 26.589844 L 60.109375 26.640625 L 60.119141 26.689453 C 60.809141 25.349453 60.860781 23.650234 60.300781 21.240234 C 60.298324 21.229682 60.295438 21.219529 60.292969 21.208984 C 60.291362 21.201925 60.290679 21.196525 60.289062 21.189453 C 59.54776 18.005653 58.219679 15.196392 55.335938 13.464844 C 55.188524 13.374371 55.056146 13.274366 54.900391 13.189453 C 54.584766 13.017578 54.255801 12.864517 53.921875 12.730469 C 52.924258 12.32712 51.85087 12.095297 50.763672 12.029297 C 50.405695 12.007271 50.043873 12.003694 49.685547 12.017578 C 49.682296 12.017705 49.679032 12.017449 49.675781 12.017578 z M 7.5507812 16.560547 A 12.61 12.61 0 0 0 7.3984375 16.681641 A 12.61 12.61 0 0 0 7.2128906 16.833984 A 12.61 12.61 0 0 0 7.1347656 16.900391 A 12.61 12.61 0 0 0 7.0566406 16.966797 A 12.61 12.61 0 0 0 6.484375 17.496094 A 12.61 12.61 0 0 0 6.3613281 17.619141 A 12.61 12.61 0 0 0 6.2265625 17.757812 A 12.61 12.61 0 0 0 6.2128906 17.771484 A 12.61 12.61 0 0 0 6.0742188 17.917969 A 12.61 12.61 0 0 0 5.9003906 18.109375 C -0.28960938 26.689375 -1.5399219 36 1.8300781 46 A 26.49 26.49 0 0 0 1.8417969 46.03125 A 26.49 26.49 0 0 0 1.8671875 46.099609 A 26.49 26.49 0 0 0 6.2304688 53.939453 A 1.56 1.56 0 0 0 7.9746094 54.65625 A 1.56 1.56 0 0 0 8.4902344 54.429688 A 1.83 1.83 0 0 0 9.1035156 52.203125 A 1.83 1.83 0 0 1 9.1035156 52.201172 A 1.83 1.83 0 0 0 9.0546875 52.099609 A 1.83 1.83 0 0 1 9.0546875 52.097656 A 1.83 1.83 0 0 0 9 52 A 6.5 6.5 0 0 0 8.5996094 51.349609 C 2.3796094 42.649609 1.6390625 33.459609 6.2890625 23.849609 C 6.6427926 23.132185 7.0949546 22.468367 7.5507812 21.800781 C 8.0132813 21.133281 8.4746094 20.469766 8.8496094 19.759766 A 2.92 2.92 0 0 0 9.1035156 18.572266 A 2.92 2.92 0 0 0 9.1035156 18.501953 A 2.92 2.92 0 0 0 9.1015625 18.478516 A 2.92 2.92 0 0 0 8.9902344 17.720703 C 8.8702344 17.290703 8.1707813 17.030547 7.5507812 16.560547 z M 14.320312 20.939453 C 13.769727 20.912598 13.174609 21.224609 12.599609 21.849609 A 21.52 21.52 0 0 0 7.515625 32.291016 A 21.52 21.52 0 0 0 7.453125 32.65625 A 21.52 21.52 0 0 0 7.2949219 33.796875 A 21.52 21.52 0 0 0 7.2929688 33.820312 A 21.52 21.52 0 0 0 7.2207031 34.611328 A 21.52 21.52 0 0 0 7.1992188 34.982422 A 21.52 21.52 0 0 0 7.171875 35.671875 A 21.52 21.52 0 0 0 7.1699219 35.779297 C 7.4799219 37.649297 7.659375 39.560391 8.109375 41.400391 A 19.09 19.09 0 0 0 8.1132812 41.416016 A 19.09 19.09 0 0 0 8.203125 41.755859 A 19.09 19.09 0 0 0 8.2285156 41.845703 A 19.09 19.09 0 0 0 8.4082031 42.460938 A 19.09 19.09 0 0 0 8.4746094 42.667969 A 19.09 19.09 0 0 0 8.5195312 42.810547 A 19.09 19.09 0 0 0 8.5253906 42.826172 A 19.09 19.09 0 0 0 8.6386719 43.158203 A 19.09 19.09 0 0 0 8.6445312 43.173828 A 19.09 19.09 0 0 0 8.7675781 43.509766 A 19.09 19.09 0 0 0 8.7714844 43.519531 A 19.09 19.09 0 0 0 8.8984375 43.845703 A 19.09 19.09 0 0 0 8.9042969 43.861328 A 19.09 19.09 0 0 0 9.0371094 44.185547 A 19.09 19.09 0 0 0 9.0429688 44.201172 A 19.09 19.09 0 0 0 9.1835938 44.523438 A 19.09 19.09 0 0 0 9.1894531 44.539062 A 19.09 19.09 0 0 0 9.3359375 44.857422 A 19.09 19.09 0 0 0 9.4296875 45.054688 A 19.09 19.09 0 0 0 9.4941406 45.189453 A 19.09 19.09 0 0 0 9.5019531 45.203125 A 19.09 19.09 0 0 0 9.6582031 45.517578 A 19.09 19.09 0 0 0 9.6660156 45.53125 A 19.09 19.09 0 0 0 9.8300781 45.841797 A 19.09 19.09 0 0 0 9.9707031 46.097656 A 19.09 19.09 0 0 0 10.013672 46.173828 A 19.09 19.09 0 0 0 10.015625 46.177734 A 19.09 19.09 0 0 0 10.191406 46.482422 A 19.09 19.09 0 0 0 10.240234 46.564453 A 19.09 19.09 0 0 0 10.380859 46.796875 A 19.09 19.09 0 0 0 10.390625 46.810547 A 19.09 19.09 0 0 0 10.576172 47.107422 A 19.09 19.09 0 0 0 10.585938 47.121094 A 19.09 19.09 0 0 0 10.779297 47.414062 A 19.09 19.09 0 0 0 10.880859 47.564453 A 19.09 19.09 0 0 0 11.201172 48.019531 A 19.09 19.09 0 0 0 11.265625 48.107422 A 19.09 19.09 0 0 0 11.417969 48.3125 A 19.09 19.09 0 0 0 11.427734 48.324219 A 19.09 19.09 0 0 0 11.873047 48.888672 A 19.09 19.09 0 0 0 11.884766 48.902344 A 19.09 19.09 0 0 0 12.115234 49.177734 A 19.09 19.09 0 0 0 12.759766 49.894531 A 19.09 19.09 0 0 0 12.859375 50 A 1.58 1.58 0 0 0 12.882812 50.03125 A 1.58 1.58 0 0 0 15.119141 50.310547 A 1.87 1.87 0 0 0 15.451172 49.957031 A 1.87 1.87 0 0 0 15.503906 49.884766 A 1.87 1.87 0 0 0 15.517578 49.863281 A 1.87 1.87 0 0 0 15.519531 47.800781 A 5.15 5.15 0 0 0 15.089844 47.300781 A 17.23 17.23 0 0 1 13.091797 26.898438 A 17.23 17.23 0 0 1 13.167969 26.773438 A 17.23 17.23 0 0 1 13.646484 26.035156 A 17.23 17.23 0 0 1 15.070312 24.230469 A 2 2 0 0 0 15.447266 23.785156 A 2 2 0 0 0 15.25 21.359375 C 14.965 21.093125 14.650664 20.955566 14.320312 20.939453 z M 20.53125 24.796875 C 20.419756 24.796232 20.3055 24.810985 20.1875 24.837891 C 20.074777 24.863592 19.958617 24.902057 19.839844 24.953125 C 19.801841 24.969459 19.761287 24.994689 19.722656 25.013672 C 19.636392 25.055987 19.550357 25.096945 19.460938 25.152344 C 19.336851 25.22922 19.210335 25.317664 19.080078 25.419922 A 12.91 12.91 0 0 0 18.833984 25.617188 A 12.91 12.91 0 0 0 18.601562 25.810547 A 12.91 12.91 0 0 0 18.400391 25.986328 A 12.91 12.91 0 0 0 18.318359 26.058594 A 12.91 12.91 0 0 0 18.15625 26.208984 A 12.91 12.91 0 0 0 18.140625 26.224609 A 12.91 12.91 0 0 0 17.933594 26.423828 A 12.91 12.91 0 0 0 17.787109 26.570312 A 12.91 12.91 0 0 0 17.587891 26.777344 A 12.91 12.91 0 0 0 17.572266 26.792969 A 12.91 12.91 0 0 0 17.511719 26.857422 A 12.91 12.91 0 0 0 17.373047 27.009766 A 12.91 12.91 0 0 0 17.173828 27.238281 A 12.91 12.91 0 0 0 16.982422 27.466797 A 12.91 12.91 0 0 0 16.978516 27.470703 A 12.91 12.91 0 0 0 16.919922 27.542969 A 12.91 12.91 0 0 0 16.792969 27.705078 A 12.91 12.91 0 0 0 16.609375 27.947266 A 12.91 12.91 0 0 0 14.070312 35.570312 L 14.080078 35.560547 C 14.190078 40.130547 16.150234 44.08 19.240234 46.25 A 1.62 1.62 0 0 0 21.548828 46.259766 A 1.62 1.62 0 0 0 21.679688 46.109375 A 1.62 1.62 0 0 0 21.689453 46.099609 A 1.88 1.88 0 0 0 21.429688 43.529297 A 2.65 2.65 0 0 0 21.169922 43.320312 A 9.46 9.46 0 0 1 19.341797 30.027344 A 9.46 9.46 0 0 1 19.65625 29.636719 A 9.46 9.46 0 0 1 19.675781 29.613281 A 9.46 9.46 0 0 1 19.816406 29.453125 A 9.46 9.46 0 0 1 19.841797 29.423828 A 9.46 9.46 0 0 1 19.929688 29.330078 A 9.46 9.46 0 0 1 20.0625 29.189453 A 9.46 9.46 0 0 1 20.193359 29.056641 A 9.46 9.46 0 0 1 20.207031 29.044922 A 9.46 9.46 0 0 1 20.322266 28.931641 A 9.46 9.46 0 0 1 20.417969 28.841797 A 9.46 9.46 0 0 1 20.453125 28.810547 A 9.46 9.46 0 0 1 20.625 28.654297 A 9.46 9.46 0 0 1 20.765625 28.533203 A 9.46 9.46 0 0 1 20.814453 28.494141 A 9.46 9.46 0 0 1 20.835938 28.476562 A 9.46 9.46 0 0 1 21.023438 28.324219 A 9.46 9.46 0 0 1 21.160156 28.220703 A 1.92 1.92 0 0 0 21.306641 28.117188 A 1.92 1.92 0 0 0 21.396484 28.044922 A 1.92 1.92 0 0 0 21.484375 27.966797 A 1.92 1.92 0 0 0 21.523438 27.929688 A 1.92 1.92 0 0 0 21.542969 27.908203 A 1.92 1.92 0 0 0 21.601562 27.84375 A 1.92 1.92 0 0 0 21.675781 27.751953 A 1.92 1.92 0 0 0 21.689453 25.419922 C 21.349453 25.009922 20.965 24.799375 20.53125 24.796875 z " />
</svg>
